<svg xmlns="http://www.w3.org/2000/svg" xmlns:xlink="http://www.w3.org/1999/xlink" viewBox="0 0 278.66 189.8"><defs><style>.cls-1{isolation:isolate;}.cls-2{fill:#fff;stroke-miterlimit:10;stroke-width:3.94px;opacity:0.8;}.cls-2,.cls-5{stroke:#000;}.cls-3{fill:#2e3192;}.cls-4{opacity:0.5;mix-blend-mode:multiply;}.cls-10,.cls-5{fill:none;stroke-linecap:round;stroke-linejoin:round;stroke-width:9.13px;}.cls-6{fill:url(#未命名的渐变_4);}.cls-7{fill:url(#未命名的渐变_4-2);}.cls-8{fill:url(#未命名的渐变_4-3);}.cls-9{fill:url(#未命名的渐变_4-4);}.cls-10{stroke:#fff;}</style><linearGradient id="未命名的渐变_4" x1="73.19" y1="135.23" x2="132.86" y2="135.23" gradientUnits="userSpaceOnUse"><stop offset="0" stop-color="#ffe268"/><stop offset="1" stop-color="#fff"/></linearGradient><linearGradient id="未命名的渐变_4-2" x1="163.72" y1="139.97" x2="207.24" y2="139.97" xlink:href="#未命名的渐变_4"/><linearGradient id="未命名的渐变_4-3" x1="132.95" y1="151.45" x2="168.68" y2="151.45" xlink:href="#未命名的渐变_4"/><linearGradient id="未命名的渐变_4-4" x1="197.35" y1="151.45" x2="233.08" y2="151.45" xlink:href="#未命名的渐变_4"/></defs><title>未标题-1</title><g class="cls-1"><g id="图层_1" data-name="图层 1"><rect class="cls-2" x="1.97" y="1.97" width="274.71" height="185.85" rx="12.48"/><path class="cls-3" d="M101.91,48.14a1.52,1.52,0,0,1,0-3h14.22a1.33,1.33,0,0,1,1.48,1.5c0,1.54-1.15,1.54-1.48,1.54h-5.06c-.1,1.6-.29,5.32-3.6,7.49a9.89,9.89,0,0,1-4.18,1.56c-1.05,0-1.46-1.17-1.46-1.76A1.37,1.37,0,0,1,103,54.09c2.54-.76,4.72-1.39,4.92-6Zm11.16-8.33a1.31,1.31,0,0,1,1.46,1.5c0,1.52-1.11,1.52-1.46,1.52h-9.65c-.31,0-1.44,0-1.44-1.5s1.11-1.52,1.44-1.52Zm1.31-.64a1.69,1.69,0,0,1-.06-.39c0-.59.66-.65.76-.65.42,0,.6.34.79.9a6.37,6.37,0,0,1,.47,1.85.69.69,0,0,1-.74.71.6.6,0,0,1-.6-.43c0-.08-.25-.92-.31-1.08S114.41,39.3,114.38,39.17Zm2.23-.16a1.34,1.34,0,0,1-.06-.35c0-.6.65-.66.78-.66.37,0,.55.25.76.84a7.44,7.44,0,0,1,.49,1.89.7.7,0,0,1-.74.72c-.47,0-.53-.14-.92-1.52C116.89,39.79,116.65,39.15,116.61,39Z" transform="translate(-13.81 -13.1)"/><path class="cls-3" d="M123.76,49.39c0,.8-.27,1.56-1.62,1.56-1,0-1.65-.37-1.65-1.56V41c0-.78.23-1.58,1.61-1.58,1,0,1.66.39,1.66,1.58Zm9.73-1.29c0,1.35,0,5.25-3.76,7.31a13.73,13.73,0,0,1-6.15,1.6,1.48,1.48,0,0,1-1.3-.52,1.93,1.93,0,0,1-.41-1.25c0-1.31.86-1.41,1.95-1.52,3.21-.33,4.39-1.06,5.19-1.91a4.73,4.73,0,0,0,1.17-3.59V40.69c0-.92.39-1.58,1.63-1.58,1,0,1.68.35,1.68,1.58Z" transform="translate(-13.81 -13.1)"/><path class="cls-3" d="M143.55,41.1c0,.95-.6,7.7-2.94,12.52-1.3,2.71-1.91,2.89-2.55,2.89a1.93,1.93,0,0,1-1.75-1.72,2.34,2.34,0,0,1,.53-1.37c2.55-3.9,3.11-8,3.58-12.05.09-.88.21-1.77,1.42-1.77a2,2,0,0,1,.41,0A1.32,1.32,0,0,1,143.55,41.1Zm4.63-1.5c1.19,0,1.28.89,1.4,1.83.45,3.88,1,8,3.58,12a2.24,2.24,0,0,1,.52,1.35,1.91,1.91,0,0,1-1.75,1.74c-.68,0-1.3-.32-2.54-2.89a38.08,38.08,0,0,1-2.94-12.5c0-.39,0-1.25,1.32-1.48Zm1.94-.26a2.18,2.18,0,0,1-.05-.39c0-.56.6-.64.75-.64.39,0,.57.27.78.86a7.36,7.36,0,0,1,.49,1.87.69.69,0,0,1-.74.72c-.49,0-.51-.1-.91-1.52C150.4,40.1,150.18,39.48,150.12,39.34Zm2.26-.15a1.1,1.1,0,0,1-.06-.37c0-.55.59-.65.78-.65.39,0,.55.28.76.84a7.55,7.55,0,0,1,.49,1.89.7.7,0,0,1-.74.71c-.49,0-.53-.18-.92-1.49C152.65,40,152.42,39.32,152.38,39.19Z" transform="translate(-13.81 -13.1)"/><path class="cls-3" d="M159.8,49.39c0,.8-.27,1.56-1.62,1.56-1,0-1.65-.37-1.65-1.56V41c0-.78.23-1.58,1.61-1.58,1,0,1.66.39,1.66,1.58Zm9.73-1.29c0,1.35,0,5.25-3.76,7.31a13.73,13.73,0,0,1-6.15,1.6,1.48,1.48,0,0,1-1.3-.52,1.93,1.93,0,0,1-.41-1.25c0-1.31.86-1.41,2-1.52,3.21-.33,4.39-1.06,5.19-1.91a4.73,4.73,0,0,0,1.17-3.59V40.69c0-.92.39-1.58,1.63-1.58,1,0,1.68.35,1.68,1.58Z" transform="translate(-13.81 -13.1)"/><path class="cls-3" d="M174.1,49.76a1.48,1.48,0,0,1-1.71-1.68c0-1.62,1-1.72,1.71-1.72H188A1.49,1.49,0,0,1,189.71,48c0,1.66-1.09,1.72-1.72,1.72Z" transform="translate(-13.81 -13.1)"/><path class="cls-3" d="M205.59,53.7a1.54,1.54,0,0,1,.44,1.09,1.5,1.5,0,0,1-1.42,1.52,1.8,1.8,0,0,1-1.22-.66L201.77,54a6.54,6.54,0,0,1-4.92,2.36,4.9,4.9,0,0,1-5.1-5c0-3,2.26-4.31,3.47-5a5.26,5.26,0,0,1-1.48-3.49,4,4,0,0,1,4.1-4.1c2.53,0,3.89,2,3.89,4.25a4.75,4.75,0,0,1-2.47,4.23l2,2.25c.07-.22.39-1.25.46-1.45a1.3,1.3,0,0,1,1.36-.8c1,0,1.6.59,1.6,1.19a10.22,10.22,0,0,1-1.26,3.2Zm-8.66-5.07a3.13,3.13,0,0,0-1.81,2.61,2.07,2.07,0,0,0,2.12,2.18,3.46,3.46,0,0,0,2.61-1.5Zm2-6.07c0-.84-.35-1.48-1.09-1.48s-1.2.68-1.2,1.5a4.42,4.42,0,0,0,1,2.32A2.89,2.89,0,0,0,199,42.56Z" transform="translate(-13.81 -13.1)"/><path class="cls-3" d="M73.8,76.62a1.33,1.33,0,0,1-1.47-1.5c0-1.54,1.14-1.54,1.47-1.54H88A1.33,1.33,0,0,1,89.5,75.1c0,1.52-1.14,1.52-1.47,1.52H83c-.1,1.7-.31,5.33-3.58,7.49a9.9,9.9,0,0,1-4.2,1.56c-1.08,0-1.46-1.17-1.46-1.77a1.35,1.35,0,0,1,1.16-1.31c2.53-.74,4.71-1.4,4.91-6Zm12.73-8.34A1.32,1.32,0,0,1,88,69.78c0,1.52-1.11,1.52-1.46,1.52H75.32c-.31,0-1.44,0-1.44-1.5s1.11-1.52,1.44-1.52Z" transform="translate(-13.81 -13.1)"/><path class="cls-3" d="M102.51,84.15c0,.76-.22,1.6-1.64,1.6-1.05,0-1.67-.41-1.67-1.58V76c-2.47,1.21-5.41,2.34-6.42,2.34-1.23,0-1.52-1.27-1.52-1.87,0-1,.56-1.19,1.17-1.37A34.66,34.66,0,0,0,99.82,72a25.57,25.57,0,0,0,5.49-4.17,1.48,1.48,0,0,1,1-.47,1.91,1.91,0,0,1,1.79,1.83,1.69,1.69,0,0,1-.68,1.31,32.33,32.33,0,0,1-4.92,3.65Z" transform="translate(-13.81 -13.1)"/><path class="cls-3" d="M123.5,70.07c2,0,2.06,1.33,2.06,2a15.37,15.37,0,0,1-5.11,10.2,16.87,16.87,0,0,1-8,3.43,1.58,1.58,0,0,1-1.52-1.73c0-1.09.45-1.19,1.93-1.56,2.84-.72,6.3-1.87,8.29-6.09a11.54,11.54,0,0,0,.93-2.84c0-.32-.17-.32-.62-.32h-5.37c-.7.94-3.17,4-4.61,4a1.68,1.68,0,0,1-1.56-1.66c0-.64.1-.72,1.35-1.73A14.82,14.82,0,0,0,114.9,69c.59-1.19.82-1.66,1.77-1.66.68,0,1.7.39,1.7,1.27a3.1,3.1,0,0,1-.47,1.46Z" transform="translate(-13.81 -13.1)"/><path class="cls-3" d="M129.56,71.36a1.57,1.57,0,0,1,0-3.14h13.23c.68,0,2.14.1,2.14,1.79a9.19,9.19,0,0,1-1.85,4.7c-1.23,1.72-2.94,3.05-3.74,3.05A1.76,1.76,0,0,1,137.73,76c0-.66.25-.84,1.11-1.4a6.11,6.11,0,0,0,2.33-3c0-.25-.17-.25-.52-.25Zm7.94,3.06a13.23,13.23,0,0,1-2.05,7.45c-1.46,2.11-3.83,3.67-5,3.67a1.74,1.74,0,0,1-1.55-1.76c0-.74.19-.86,1.82-1.81,3.45-2,3.54-5,3.64-7.67,0-.74.06-1.69,1.58-1.69S137.5,73.74,137.5,74.42Z" transform="translate(-13.81 -13.1)"/><path class="cls-3" d="M160.59,70.13c1.58,0,2.57.55,2.57,2.52,0,2.47-.48,6.82-3.52,9.57a13.74,13.74,0,0,1-6.5,3.12,10.16,10.16,0,0,1-1.73.22,1.59,1.59,0,0,1-1.56-1.74c0-1.13.78-1.27,1.33-1.38,2.29-.41,4.24-.73,6.22-2.44a8.19,8.19,0,0,0,2.51-6.3c0-.51-.19-.53-.6-.53h-8a.61.61,0,0,0-.66.7v2.6c0,.76-.21,1.52-1.53,1.52-1,0-1.58-.37-1.58-1.52V72.94c0-2,.74-2.81,2.67-2.81h3.5V68.84c0-.66.13-1.52,1.57-1.52,1.13,0,1.62.47,1.62,1.52v1.29Z" transform="translate(-13.81 -13.1)"/><path class="cls-3" d="M170.46,84c0,.6,0,1.71-1.65,1.71s-1.68-1-1.68-1.71V69a1.46,1.46,0,0,1,1.66-1.7c1.59,0,1.67,1.05,1.67,1.7v3.37a47.35,47.35,0,0,1,7.39,3.16c1.27.68,1.64,1.07,1.64,1.89s-.59,2-1.64,2a2.85,2.85,0,0,1-1.55-.64,31.88,31.88,0,0,0-5.84-3Z" transform="translate(-13.81 -13.1)"/><path class="cls-3" d="M182.86,71.36a1.57,1.57,0,0,1,0-3.14h13.23c.68,0,2.14.1,2.14,1.79a9.19,9.19,0,0,1-1.85,4.7c-1.23,1.72-2.94,3.05-3.74,3.05A1.76,1.76,0,0,1,191,76c0-.66.25-.84,1.11-1.4a6,6,0,0,0,2.33-3c0-.25-.17-.25-.52-.25Zm7.94,3.06a13.23,13.23,0,0,1-2.05,7.45c-1.46,2.11-3.83,3.67-5,3.67a1.75,1.75,0,0,1-1.55-1.76c0-.74.19-.86,1.83-1.81,3.44-2,3.54-5,3.63-7.67,0-.74.06-1.69,1.58-1.69S190.8,73.74,190.8,74.42Z" transform="translate(-13.81 -13.1)"/><path class="cls-3" d="M202.09,72.59a1.4,1.4,0,0,1-1.56-1.6c0-1.58,1.07-1.64,1.56-1.64h10.73a8,8,0,0,1,1.15.1,3,3,0,0,1-.08-.59,2.26,2.26,0,0,1,2.2-2.3,2.21,2.21,0,0,1,2.16,2.26A2.26,2.26,0,0,1,216,71.14a5,5,0,0,1,.11,1.06,15.33,15.33,0,0,1-3.67,8.89,14.25,14.25,0,0,1-8.37,4.45c-1.21,0-1.52-1.31-1.52-1.86,0-1,.68-1.22,1.64-1.48,6.05-1.73,7.47-5.3,8-7.06a7.93,7.93,0,0,0,.45-2c0-.5-.27-.5-.51-.5Zm14-4.72a1,1,0,0,0,0,1.95,1,1,0,0,0,0-1.95Z" transform="translate(-13.81 -13.1)"/><path class="cls-3" d="M223.22,77.89c0,.8-.27,1.56-1.62,1.56-1,0-1.65-.37-1.65-1.56V69.45c0-.78.23-1.58,1.61-1.58,1,0,1.66.39,1.66,1.58Zm9.73-1.3c0,1.36,0,5.26-3.76,7.31A13.73,13.73,0,0,1,223,85.5a1.5,1.5,0,0,1-1.3-.51,1.93,1.93,0,0,1-.41-1.25c0-1.32.86-1.42,1.95-1.52,3.21-.33,4.39-1.07,5.19-1.91a4.76,4.76,0,0,0,1.17-3.59V69.19c0-.93.39-1.58,1.63-1.58,1,0,1.68.34,1.68,1.58Z" transform="translate(-13.81 -13.1)"/><g class="cls-4"><path d="M134.52,103.41a1.56,1.56,0,0,0-1.57-1.55h-.08a1.56,1.56,0,0,0-1.57,1.55v18.33h0v.42a1.47,1.47,0,0,1-2.94,0v-19.1a1.57,1.57,0,0,0-1.53-1.2h-.08a1.56,1.56,0,0,0-1.57,1.55v18.33h0v.47a1.41,1.41,0,0,1-1.42,1.4h0a1.41,1.41,0,0,1-1.42-1.4v-.47h0V103.41a1.56,1.56,0,0,0-1.57-1.55h-.08a1.56,1.56,0,0,0-1.57,1.55v18.33h0v.42a1.48,1.48,0,0,1-3,0V103.35a1.56,1.56,0,0,0-1.56-1.49h-.08a1.56,1.56,0,0,0-1.57,1.55v21.5a.61.61,0,0,0,0,.14h0a13.08,13.08,0,0,0,5.76,9.91,1.72,1.72,0,0,1,.72,1.63l-.11,1.14H91.55l-.19-2.36c3.91-2.56,6.93-8.17,6.93-15.43,0-10-5.8-16.94-11.72-16.94s-11.72,6.9-11.72,16.94c0,7.34,3.1,13,7.07,15.51l-2.26,26.48c-.2,5.32,3,9.78,6.92,9.78s7.11-4.46,6.92-9.78l-1.35-16.69a8.63,8.63,0,0,0,5.22,1.91c3.23,0,3.92-1.15,4.59-2.26s1.2-2,4.5-2a18.73,18.73,0,0,1,4,.39L115.2,145h0a7.23,7.23,0,0,0,3,.83h.24l-1.63,16.43c-.2,5.26,2.95,9.66,6.91,9.66s7.12-4.4,6.92-9.66l-2.4-25.72a1.77,1.77,0,0,1,.73-1.67,11.68,11.68,0,0,0,2.48-2.19,14,14,0,0,0,3.12-7.62h0s0-.09,0-.14Z" transform="translate(-13.81 -13.1)"/><path d="M208,120.9a7.67,7.67,0,0,0,.86-3.38c0-3-2.45-6.25-6-6.25a5.69,5.69,0,0,0-5,3l0,0-.07.11-10.75,18.7-10.7-18.68a5.76,5.76,0,0,0-5-3.18c-3.6,0-6,3.3-6,6.38a6.89,6.89,0,0,0,.94,3.39l14.93,25.66v19a5.84,5.84,0,0,0,5.92,6.31c2.82,0,5.86-2,5.86-6.31v-19L208,121Z" transform="translate(-13.81 -13.1)"/><path d="M167.32,134.59l-4.17.27a2.63,2.63,0,0,0-2,1.17,13.84,13.84,0,0,0-1.7-.92,14.11,14.11,0,0,0-6.61-1.09,17.42,17.42,0,0,0-9.77,3.77,21.45,21.45,0,0,0-6.54,8.74A25.06,25.06,0,0,0,134.67,158c.29,4.67,1.78,8.3,4.43,10.82a13.2,13.2,0,0,0,9.44,3.46c.42,0,.85,0,1.28,0a14.73,14.73,0,0,0,7.11-2.29,18.12,18.12,0,0,0,2.61-2c.11.12.21.24.33.36l0,0a8.54,8.54,0,0,0,6.86,2.21,3.57,3.57,0,0,0,1.58-.53,2.24,2.24,0,0,0,1.46-2.06c0-.65,0-1.3,0-1.95s0-1.55,0-2.31a2.23,2.23,0,0,0-.73-1.71,2.27,2.27,0,0,0-1.72-.57v0a6.57,6.57,0,0,1,.05-1.25v0l2.86-22v0a2.76,2.76,0,0,0-.72-2.33A2.72,2.72,0,0,0,167.32,134.59Zm-17.44,27.89a4.58,4.58,0,0,1-3.73-1.16,6.9,6.9,0,0,1-1.64-4.57,16.3,16.3,0,0,1,.59-5.65,12.54,12.54,0,0,1,2.11-4.27,11.17,11.17,0,0,1,3.07-2.7,7.41,7.41,0,0,1,3.34-1,3.93,3.93,0,0,1,.48,0,4.13,4.13,0,0,1,3.14,1.19,6.66,6.66,0,0,1,1.63,4.42,16.29,16.29,0,0,1-.92,6.4,13.21,13.21,0,0,1-3.39,5.27A7.31,7.31,0,0,1,149.88,162.48Z" transform="translate(-13.81 -13.1)"/><path d="M234,135.67a2.75,2.75,0,0,0-2.28-1.08l-4.17.27a2.63,2.63,0,0,0-2,1.17,13.14,13.14,0,0,0-1.7-.92,14.09,14.09,0,0,0-6.61-1.09,17.42,17.42,0,0,0-9.77,3.77,21.45,21.45,0,0,0-6.54,8.74A25.2,25.2,0,0,0,199.07,158c.3,4.67,1.79,8.3,4.43,10.82a13.22,13.22,0,0,0,9.44,3.46c.42,0,.85,0,1.29,0a14.73,14.73,0,0,0,7.1-2.29,18.79,18.79,0,0,0,2.62-2l.32.36,0,0a8.55,8.55,0,0,0,6.87,2.21,3.57,3.57,0,0,0,1.58-.53,2.25,2.25,0,0,0,1.46-2.06c0-.65,0-1.3,0-1.95s0-1.55,0-2.31a2.25,2.25,0,0,0-2.46-2.28v0a5.84,5.84,0,0,1,0-1.25v0l2.86-22v0A2.83,2.83,0,0,0,234,135.67Zm-19.72,26.81a4.59,4.59,0,0,1-3.73-1.16,7,7,0,0,1-1.63-4.57,16.3,16.3,0,0,1,.58-5.65,12.54,12.54,0,0,1,2.11-4.27,11.2,11.2,0,0,1,3.08-2.7,7.37,7.37,0,0,1,3.33-1,4.1,4.1,0,0,1,.49,0,4.15,4.15,0,0,1,3.14,1.19,6.66,6.66,0,0,1,1.62,4.42,15.93,15.93,0,0,1-.92,6.4,13.21,13.21,0,0,1-3.39,5.27A7.29,7.29,0,0,1,214.28,162.48Z" transform="translate(-13.81 -13.1)"/><path class="cls-5" d="M134.52,103.41a1.56,1.56,0,0,0-1.57-1.55h-.08a1.56,1.56,0,0,0-1.57,1.55v18.33h0v.42a1.47,1.47,0,0,1-2.94,0v-19.1a1.57,1.57,0,0,0-1.53-1.2h-.08a1.56,1.56,0,0,0-1.57,1.55v18.33h0v.47a1.41,1.41,0,0,1-1.42,1.4h0a1.41,1.41,0,0,1-1.42-1.4v-.47h0V103.41a1.56,1.56,0,0,0-1.57-1.55h-.08a1.56,1.56,0,0,0-1.57,1.55v18.33h0v.42a1.48,1.48,0,0,1-3,0V103.35a1.56,1.56,0,0,0-1.56-1.49h-.08a1.56,1.56,0,0,0-1.57,1.55v21.5a.61.61,0,0,0,0,.14h0a13.08,13.08,0,0,0,5.76,9.91,1.72,1.72,0,0,1,.72,1.63l-.11,1.14H91.55l-.19-2.36c3.91-2.56,6.93-8.17,6.93-15.43,0-10-5.8-16.94-11.72-16.94s-11.72,6.9-11.72,16.94c0,7.34,3.1,13,7.07,15.51l-2.26,26.48c-.2,5.32,3,9.78,6.92,9.78s7.11-4.46,6.92-9.78l-1.35-16.69a8.63,8.63,0,0,0,5.22,1.91c3.23,0,3.92-1.15,4.59-2.26s1.2-2,4.5-2a18.73,18.73,0,0,1,4,.39L115.2,145h0a7.23,7.23,0,0,0,3,.83h.24l-1.63,16.43c-.2,5.26,2.95,9.66,6.91,9.66s7.12-4.4,6.92-9.66l-2.4-25.72a1.77,1.77,0,0,1,.73-1.67,11.68,11.68,0,0,0,2.48-2.19,14,14,0,0,0,3.12-7.62h0s0-.09,0-.14Z" transform="translate(-13.81 -13.1)"/><path class="cls-5" d="M133,102.86a.57.57,0,0,1,.57.55V125l0,.32a12.89,12.89,0,0,1-2.85,6.74,10.33,10.33,0,0,1-2.25,2,2.78,2.78,0,0,0-1.19,2.6l2.41,25.7a9.69,9.69,0,0,1-2.38,7,4.65,4.65,0,0,1-7.09,0,9.69,9.69,0,0,1-2.38-7l1.63-16.4.12-1.17-1.17.07h-.18a6.59,6.59,0,0,1-2.55-.74l0,0h0l-4.77-1.72-.07,0h-.06a19.73,19.73,0,0,0-4.17-.41c-3.57,0-4.54,1.12-5.36,2.47-.6,1-1.07,1.78-3.73,1.78a7.64,7.64,0,0,1-4.61-1.7L91,143.06l.18,2.26L92.5,162a9.85,9.85,0,0,1-2.42,7.11,4.58,4.58,0,0,1-7,0A9.81,9.81,0,0,1,80.65,162l2.27-26.47,0-.61-.51-.32c-4.08-2.58-6.61-8.2-6.61-14.67,0-9.84,5.56-15.94,10.72-15.94s10.72,6.1,10.72,15.94c0,6.38-2.48,12-6.48,14.59l-.5.32,0,.6.19,2.36.07.92H120.1l.09-.9.11-1.13a2.69,2.69,0,0,0-1.19-2.58,12.07,12.07,0,0,1-5.25-8.76l0-.4V103.41a.57.57,0,0,1,.57-.55h.08a.55.55,0,0,1,.56.49v18.81a2.47,2.47,0,0,0,4.87.58H120V103.41a.56.56,0,0,1,.57-.55h.08a.57.57,0,0,1,.57.55v18.33l0,1h.07a2.45,2.45,0,0,0,4.76,0h.09V103.41a.56.56,0,0,1,.57-.55h.08a.58.58,0,0,1,.53.35v19a2.46,2.46,0,0,0,2.47,2.45,2.49,2.49,0,0,0,2.4-1.87h.11V103.41a.56.56,0,0,1,.57-.55H133m0-1h-.08a1.56,1.56,0,0,0-1.57,1.55v18.33h0v.42a1.47,1.47,0,0,1-2.94,0v-19.1a1.57,1.57,0,0,0-1.53-1.2h-.08a1.56,1.56,0,0,0-1.57,1.55v18.33h0v.47a1.41,1.41,0,0,1-1.42,1.4h0a1.41,1.41,0,0,1-1.42-1.4v-.47h0V103.41a1.56,1.56,0,0,0-1.57-1.55h-.08a1.56,1.56,0,0,0-1.57,1.55v18.33h0v.42a1.48,1.48,0,0,1-3,0V103.35a1.56,1.56,0,0,0-1.56-1.49h-.08a1.56,1.56,0,0,0-1.57,1.55v21.5a.61.61,0,0,0,0,.14h0a13.08,13.08,0,0,0,5.76,9.91,1.72,1.72,0,0,1,.72,1.63l-.11,1.14H91.55l-.19-2.36c3.91-2.56,6.93-8.17,6.93-15.43,0-10-5.8-16.94-11.72-16.94s-11.72,6.9-11.72,16.94c0,7.34,3.1,13,7.07,15.51l-2.26,26.48c-.2,5.32,3,9.78,6.92,9.78s7.11-4.46,6.92-9.78l-1.35-16.69a8.63,8.63,0,0,0,5.22,1.91c3.23,0,3.92-1.15,4.59-2.26s1.2-2,4.5-2a18.73,18.73,0,0,1,4,.39L115.2,145h0a7.23,7.23,0,0,0,3,.83h.24l-1.63,16.43c-.2,5.26,2.95,9.66,6.91,9.66s7.12-4.4,6.92-9.66l-2.4-25.72a1.77,1.77,0,0,1,.73-1.67,11.68,11.68,0,0,0,2.48-2.19,14,14,0,0,0,3.12-7.62h0s0-.09,0-.14v-21.5a1.56,1.56,0,0,0-1.57-1.55Z" transform="translate(-13.81 -13.1)"/><path class="cls-5" d="M208,120.9a7.67,7.67,0,0,0,.86-3.38c0-3-2.45-6.25-6-6.25a5.69,5.69,0,0,0-5,3l0,0-.07.11-10.75,18.7-10.7-18.68a5.76,5.76,0,0,0-5-3.18c-3.6,0-6,3.3-6,6.38a6.89,6.89,0,0,0,.94,3.39l14.93,25.66v19a5.84,5.84,0,0,0,5.92,6.31c2.82,0,5.86-2,5.86-6.31v-19L208,121Z" transform="translate(-13.81 -13.1)"/><path class="cls-5" d="M202.93,112.27a5.26,5.26,0,0,1,5,5.25,6.68,6.68,0,0,1-.75,2.91l0,.07-14.94,25.7-.14.23v19.24c0,3.67-2.44,5.31-4.86,5.31a5,5,0,0,1-2.9-.89,5.13,5.13,0,0,1-2-4.42V146.43l-.13-.23-14.94-25.68a5.82,5.82,0,0,1-.8-2.87c0-2.6,2-5.38,5-5.38a4.79,4.79,0,0,1,4.15,2.67l10.7,18.68.87,1.52.87-1.51,10.75-18.7,0-.08,0,0a4.68,4.68,0,0,1,4.11-2.53m0-1a5.69,5.69,0,0,0-5,3l0,0-.07.11-10.75,18.7-10.7-18.68a5.76,5.76,0,0,0-5-3.18c-3.6,0-6,3.3-6,6.38a6.89,6.89,0,0,0,.94,3.39l14.93,25.66v19a5.84,5.84,0,0,0,5.92,6.31c2.82,0,5.86-2,5.86-6.31v-19L208,121l.06-.1a7.67,7.67,0,0,0,.86-3.38c0-3-2.45-6.25-6-6.25Z" transform="translate(-13.81 -13.1)"/><path class="cls-5" d="M167.32,134.59l-4.17.27a2.63,2.63,0,0,0-2,1.17,13.84,13.84,0,0,0-1.7-.92,14.11,14.11,0,0,0-6.61-1.09,17.42,17.42,0,0,0-9.77,3.77,21.45,21.45,0,0,0-6.54,8.74A25.06,25.06,0,0,0,134.67,158c.29,4.67,1.78,8.3,4.43,10.82a13.2,13.2,0,0,0,9.44,3.46c.42,0,.85,0,1.28,0a14.73,14.73,0,0,0,7.11-2.29,18.12,18.12,0,0,0,2.61-2c.11.12.21.24.33.36l0,0a8.54,8.54,0,0,0,6.86,2.21,3.57,3.57,0,0,0,1.58-.53,2.24,2.24,0,0,0,1.46-2.06c0-.65,0-1.3,0-1.95s0-1.55,0-2.31a2.23,2.23,0,0,0-.73-1.71,2.27,2.27,0,0,0-1.72-.57v0a6.57,6.57,0,0,1,.05-1.25v0l2.86-22v0a2.76,2.76,0,0,0-.72-2.33A2.72,2.72,0,0,0,167.32,134.59Zm-17.44,27.89a4.58,4.58,0,0,1-3.73-1.16,6.9,6.9,0,0,1-1.64-4.57,16.3,16.3,0,0,1,.59-5.65,12.54,12.54,0,0,1,2.11-4.27,11.17,11.17,0,0,1,3.07-2.7,7.41,7.41,0,0,1,3.34-1,3.93,3.93,0,0,1,.48,0,4.13,4.13,0,0,1,3.14,1.19,6.66,6.66,0,0,1,1.63,4.42,16.29,16.29,0,0,1-.92,6.4,13.21,13.21,0,0,1-3.39,5.27A7.31,7.31,0,0,1,149.88,162.48Z" transform="translate(-13.81 -13.1)"/><path class="cls-5" d="M153.88,135a12.69,12.69,0,0,1,5.16,1,10.49,10.49,0,0,1,1.55.84l.81.53.56-.8a1.63,1.63,0,0,1,1.25-.75l4.17-.26h.1a2.1,2.1,0,0,1,1.84,2.32l-2.87,22a7.1,7.1,0,0,0-.06,1.45v.07l.08,1,1-.1h.12a1.29,1.29,0,0,1,.84.32,1.25,1.25,0,0,1,.4,1c0,.77,0,1.56,0,2.32s0,1.29,0,1.94A1.23,1.23,0,0,1,168,169l-.09,0-.08.05a2.68,2.68,0,0,1-1.13.39l-.79,0a7.27,7.27,0,0,1-5.33-1.95l-.27-.31-.67-.8-.78.71a17.38,17.38,0,0,1-2.47,1.9,13.7,13.7,0,0,1-6.63,2.14c-.41,0-.82,0-1.22,0a12.22,12.22,0,0,1-8.75-3.19c-2.46-2.33-3.84-5.75-4.12-10.15a24.18,24.18,0,0,1,1.77-11,20.32,20.32,0,0,1,6.24-8.34,16.28,16.28,0,0,1,9.21-3.56q.5,0,1,0h0m-4.51,28.51.57,0a8.33,8.33,0,0,0,5.31-2.41,14.28,14.28,0,0,0,3.64-5.66,17.23,17.23,0,0,0,1-6.81,7.68,7.68,0,0,0-1.92-5.06,5.13,5.13,0,0,0-3.85-1.48l-.55,0a8.4,8.4,0,0,0-3.77,1.19,12.25,12.25,0,0,0-3.36,2.94,13.66,13.66,0,0,0-2.28,4.6,17.16,17.16,0,0,0-.62,6,7.81,7.81,0,0,0,1.92,5.2,5.32,5.32,0,0,0,3.93,1.48M153.88,134q-.52,0-1,0a17.42,17.42,0,0,0-9.77,3.77,21.45,21.45,0,0,0-6.54,8.74A25.06,25.06,0,0,0,134.67,158c.29,4.67,1.78,8.3,4.43,10.82a13.2,13.2,0,0,0,9.44,3.46h0c.42,0,.85,0,1.28,0a14.73,14.73,0,0,0,7.11-2.29,18.12,18.12,0,0,0,2.61-2c.11.12.21.24.33.36l0,0a8.18,8.18,0,0,0,6,2.23l.85,0a3.57,3.57,0,0,0,1.58-.53,2.24,2.24,0,0,0,1.46-2.06c0-.65,0-1.3,0-1.95s0-1.55,0-2.31a2.23,2.23,0,0,0-.73-1.71,2.28,2.28,0,0,0-1.51-.58h-.21v0a6.57,6.57,0,0,1,.05-1.25v0l2.86-22v0a3.11,3.11,0,0,0-2.83-3.42h-.16l-4.17.27a2.63,2.63,0,0,0-2,1.17,13.84,13.84,0,0,0-1.7-.92,13.61,13.61,0,0,0-5.56-1.12Zm-4.51,28.51a4.31,4.31,0,0,1-3.22-1.18,6.9,6.9,0,0,1-1.64-4.57,16.3,16.3,0,0,1,.59-5.65,12.54,12.54,0,0,1,2.11-4.27,11.17,11.17,0,0,1,3.07-2.7,7.41,7.41,0,0,1,3.34-1,3.93,3.93,0,0,1,.48,0,4.13,4.13,0,0,1,3.14,1.19,6.66,6.66,0,0,1,1.63,4.42,16.29,16.29,0,0,1-.92,6.4,13.21,13.21,0,0,1-3.39,5.27,7.31,7.31,0,0,1-4.68,2.14l-.51,0Z" transform="translate(-13.81 -13.1)"/><path class="cls-5" d="M234,135.67a2.75,2.75,0,0,0-2.28-1.08l-4.17.27a2.63,2.63,0,0,0-2,1.17,13.14,13.14,0,0,0-1.7-.92,14.09,14.09,0,0,0-6.61-1.09,17.42,17.42,0,0,0-9.77,3.77,21.45,21.45,0,0,0-6.54,8.74A25.2,25.2,0,0,0,199.07,158c.3,4.67,1.79,8.3,4.43,10.82a13.22,13.22,0,0,0,9.44,3.46c.42,0,.85,0,1.29,0a14.73,14.73,0,0,0,7.1-2.29,18.79,18.79,0,0,0,2.62-2l.32.36,0,0a8.55,8.55,0,0,0,6.87,2.21,3.57,3.57,0,0,0,1.58-.53,2.25,2.25,0,0,0,1.46-2.06c0-.65,0-1.3,0-1.95s0-1.55,0-2.31a2.25,2.25,0,0,0-2.46-2.28v0a5.84,5.84,0,0,1,0-1.25v0l2.86-22v0A2.83,2.83,0,0,0,234,135.67Zm-19.72,26.81a4.59,4.59,0,0,1-3.73-1.16,7,7,0,0,1-1.63-4.57,16.3,16.3,0,0,1,.58-5.65,12.54,12.54,0,0,1,2.11-4.27,11.2,11.2,0,0,1,3.08-2.7,7.37,7.37,0,0,1,3.33-1,4.1,4.1,0,0,1,.49,0,4.15,4.15,0,0,1,3.14,1.19,6.66,6.66,0,0,1,1.62,4.42,15.93,15.93,0,0,1-.92,6.4,13.21,13.21,0,0,1-3.39,5.27A7.29,7.29,0,0,1,214.28,162.48Z" transform="translate(-13.81 -13.1)"/><path class="cls-5" d="M218.28,135a12.69,12.69,0,0,1,5.16,1,10,10,0,0,1,1.55.84l.82.53.55-.8a1.65,1.65,0,0,1,1.25-.75l4.17-.26h.1a1.86,1.86,0,0,1,1.39.77,1.83,1.83,0,0,1,.45,1.55l-2.86,22a7.1,7.1,0,0,0-.06,1.45v.07l.08,1,1-.1H232a1.24,1.24,0,0,1,1.24,1.27c0,.77,0,1.56,0,2.32s0,1.29,0,1.94a1.26,1.26,0,0,1-.81,1.14l-.09,0-.08.05a2.68,2.68,0,0,1-1.13.39l-.79,0a7.25,7.25,0,0,1-5.32-1.95c-.1-.1-.19-.21-.28-.31l-.67-.8-.77.71a17.48,17.48,0,0,1-2.48,1.9,13.7,13.7,0,0,1-6.63,2.14c-.41,0-.82,0-1.22,0a12.24,12.24,0,0,1-8.75-3.19c-2.45-2.33-3.84-5.75-4.12-10.15a24.18,24.18,0,0,1,1.77-11,20.49,20.49,0,0,1,6.24-8.34,16.34,16.34,0,0,1,9.21-3.56l1,0h0m-4.51,28.51.58,0a8.31,8.31,0,0,0,5.3-2.41,14.28,14.28,0,0,0,3.64-5.66,17.05,17.05,0,0,0,1-6.81,7.63,7.63,0,0,0-1.92-5.06,5.12,5.12,0,0,0-3.84-1.48l-.55,0a8.4,8.4,0,0,0-3.78,1.19,12.07,12.07,0,0,0-3.35,2.94,13.48,13.48,0,0,0-2.29,4.6,17.16,17.16,0,0,0-.62,6,7.86,7.86,0,0,0,1.92,5.2,5.33,5.33,0,0,0,3.93,1.48M218.28,134q-.53,0-1.05,0a17.42,17.42,0,0,0-9.77,3.77,21.45,21.45,0,0,0-6.54,8.74A25.2,25.2,0,0,0,199.07,158c.3,4.67,1.79,8.3,4.43,10.82a13.22,13.22,0,0,0,9.44,3.46h0c.42,0,.85,0,1.29,0a14.73,14.73,0,0,0,7.1-2.29,18.79,18.79,0,0,0,2.62-2l.32.36,0,0a8.18,8.18,0,0,0,6,2.23l.86,0a3.57,3.57,0,0,0,1.58-.53,2.25,2.25,0,0,0,1.46-2.06c0-.65,0-1.3,0-1.95s0-1.55,0-2.31a2.25,2.25,0,0,0-2.24-2.29h-.22v0a5.84,5.84,0,0,1,0-1.25v0l2.86-22v0a2.83,2.83,0,0,0-.72-2.33,2.8,2.8,0,0,0-2.12-1.09h-.16l-4.17.27a2.63,2.63,0,0,0-2,1.17,13.14,13.14,0,0,0-1.7-.92,13.57,13.57,0,0,0-5.56-1.12Zm-4.51,28.51a4.33,4.33,0,0,1-3.22-1.18,7,7,0,0,1-1.63-4.57,16.3,16.3,0,0,1,.58-5.65,12.54,12.54,0,0,1,2.11-4.27,11.2,11.2,0,0,1,3.08-2.7,7.37,7.37,0,0,1,3.33-1,4.1,4.1,0,0,1,.49,0,4.15,4.15,0,0,1,3.14,1.19,6.66,6.66,0,0,1,1.62,4.42,15.93,15.93,0,0,1-.92,6.4,13.21,13.21,0,0,1-3.39,5.27,7.29,7.29,0,0,1-4.68,2.14l-.51,0Z" transform="translate(-13.81 -13.1)"/><path d="M134.52,103.41a1.56,1.56,0,0,0-1.57-1.55h-.08a1.56,1.56,0,0,0-1.57,1.55v18.33h0v.42a1.47,1.47,0,0,1-2.94,0v-19.1a1.57,1.57,0,0,0-1.53-1.2h-.08a1.56,1.56,0,0,0-1.57,1.55v18.33h0v.47a1.41,1.41,0,0,1-1.42,1.4h0a1.41,1.41,0,0,1-1.42-1.4v-.47h0V103.41a1.56,1.56,0,0,0-1.57-1.55h-.08a1.56,1.56,0,0,0-1.57,1.55v18.33h0v.42a1.48,1.48,0,0,1-3,0V103.35a1.56,1.56,0,0,0-1.56-1.49h-.08a1.56,1.56,0,0,0-1.57,1.55v21.5a.61.61,0,0,0,0,.14h0a13.08,13.08,0,0,0,5.76,9.91,1.72,1.72,0,0,1,.72,1.63l-.11,1.14H91.55l-.19-2.36c3.91-2.56,6.93-8.17,6.93-15.43,0-10-5.8-16.94-11.72-16.94s-11.72,6.9-11.72,16.94c0,7.34,3.1,13,7.07,15.51l-2.26,26.48c-.2,5.32,3,9.78,6.92,9.78s7.11-4.46,6.92-9.78l-1.35-16.69a8.63,8.63,0,0,0,5.22,1.91c3.23,0,3.92-1.15,4.59-2.26s1.2-2,4.5-2a18.73,18.73,0,0,1,4,.39L115.2,145h0a7.23,7.23,0,0,0,3,.83h.24l-1.63,16.43c-.2,5.26,2.95,9.66,6.91,9.66s7.12-4.4,6.92-9.66l-2.4-25.72a1.77,1.77,0,0,1,.73-1.67,11.68,11.68,0,0,0,2.48-2.19,14,14,0,0,0,3.12-7.62h0s0-.09,0-.14Z" transform="translate(-13.81 -13.1)"/><path d="M133,102.86a.57.57,0,0,1,.57.55V125l0,.32a12.89,12.89,0,0,1-2.85,6.74,10.33,10.33,0,0,1-2.25,2,2.78,2.78,0,0,0-1.19,2.6l2.41,25.7a9.69,9.69,0,0,1-2.38,7,4.65,4.65,0,0,1-7.09,0,9.69,9.69,0,0,1-2.38-7l1.63-16.4.12-1.17-1.17.07h-.18a6.59,6.59,0,0,1-2.55-.74l0,0h0l-4.77-1.72-.07,0h-.06a19.73,19.73,0,0,0-4.17-.41c-3.57,0-4.54,1.12-5.36,2.47-.6,1-1.07,1.78-3.73,1.78a7.64,7.64,0,0,1-4.61-1.7L91,143.06l.18,2.26L92.5,162a9.85,9.85,0,0,1-2.42,7.11,4.58,4.58,0,0,1-7,0A9.81,9.81,0,0,1,80.65,162l2.27-26.47,0-.61-.51-.32c-4.08-2.58-6.61-8.2-6.61-14.67,0-9.84,5.56-15.94,10.72-15.94s10.72,6.1,10.72,15.94c0,6.38-2.48,12-6.48,14.59l-.5.32,0,.6.19,2.36.07.92H120.1l.09-.9.11-1.13a2.69,2.69,0,0,0-1.19-2.58,12.07,12.07,0,0,1-5.25-8.76l0-.4V103.41a.57.57,0,0,1,.57-.55h.08a.55.55,0,0,1,.56.49v18.81a2.47,2.47,0,0,0,4.87.58H120V103.41a.56.56,0,0,1,.57-.55h.08a.57.57,0,0,1,.57.55v18.33l0,1h.07a2.45,2.45,0,0,0,4.76,0h.09V103.41a.56.56,0,0,1,.57-.55h.08a.58.58,0,0,1,.53.35v19a2.46,2.46,0,0,0,2.47,2.45,2.49,2.49,0,0,0,2.4-1.87h.11V103.41a.56.56,0,0,1,.57-.55H133m0-1h-.08a1.56,1.56,0,0,0-1.57,1.55v18.33h0v.42a1.47,1.47,0,0,1-2.94,0v-19.1a1.57,1.57,0,0,0-1.53-1.2h-.08a1.56,1.56,0,0,0-1.57,1.55v18.33h0v.47a1.41,1.41,0,0,1-1.42,1.4h0a1.41,1.41,0,0,1-1.42-1.4v-.47h0V103.41a1.56,1.56,0,0,0-1.57-1.55h-.08a1.56,1.56,0,0,0-1.57,1.55v18.33h0v.42a1.48,1.48,0,0,1-3,0V103.35a1.56,1.56,0,0,0-1.56-1.49h-.08a1.56,1.56,0,0,0-1.57,1.55v21.5a.61.61,0,0,0,0,.14h0a13.08,13.08,0,0,0,5.76,9.91,1.72,1.72,0,0,1,.72,1.63l-.11,1.14H91.55l-.19-2.36c3.91-2.56,6.93-8.17,6.93-15.43,0-10-5.8-16.94-11.72-16.94s-11.72,6.9-11.72,16.94c0,7.34,3.1,13,7.07,15.51l-2.26,26.48c-.2,5.32,3,9.78,6.92,9.78s7.11-4.46,6.92-9.78l-1.35-16.69a8.63,8.63,0,0,0,5.22,1.91c3.23,0,3.92-1.15,4.59-2.26s1.2-2,4.5-2a18.73,18.73,0,0,1,4,.39L115.2,145h0a7.23,7.23,0,0,0,3,.83h.24l-1.63,16.43c-.2,5.26,2.95,9.66,6.91,9.66s7.12-4.4,6.92-9.66l-2.4-25.72a1.77,1.77,0,0,1,.73-1.67,11.68,11.68,0,0,0,2.48-2.19,14,14,0,0,0,3.12-7.62h0s0-.09,0-.14v-21.5a1.56,1.56,0,0,0-1.57-1.55Z" transform="translate(-13.81 -13.1)"/><path d="M208,120.9a7.67,7.67,0,0,0,.86-3.38c0-3-2.45-6.25-6-6.25a5.69,5.69,0,0,0-5,3l0,0-.07.11-10.75,18.7-10.7-18.68a5.76,5.76,0,0,0-5-3.18c-3.6,0-6,3.3-6,6.38a6.89,6.89,0,0,0,.94,3.39l14.93,25.66v19a5.84,5.84,0,0,0,5.92,6.31c2.82,0,5.86-2,5.86-6.31v-19L208,121Z" transform="translate(-13.81 -13.1)"/><path d="M202.93,112.27a5.26,5.26,0,0,1,5,5.25,6.68,6.68,0,0,1-.75,2.91l0,.07-14.94,25.7-.14.23v19.24c0,3.67-2.44,5.31-4.86,5.31a5,5,0,0,1-2.9-.89,5.13,5.13,0,0,1-2-4.42V146.43l-.13-.23-14.94-25.68a5.82,5.82,0,0,1-.8-2.87c0-2.6,2-5.38,5-5.38a4.79,4.79,0,0,1,4.15,2.67l10.7,18.68.87,1.52.87-1.51,10.75-18.7,0-.08,0,0a4.68,4.68,0,0,1,4.11-2.53m0-1a5.69,5.69,0,0,0-5,3l0,0-.07.11-10.75,18.7-10.7-18.68a5.76,5.76,0,0,0-5-3.18c-3.6,0-6,3.3-6,6.38a6.89,6.89,0,0,0,.94,3.39l14.93,25.66v19a5.84,5.84,0,0,0,5.92,6.31c2.82,0,5.86-2,5.86-6.31v-19L208,121l.06-.1a7.67,7.67,0,0,0,.86-3.38c0-3-2.45-6.25-6-6.25Z" transform="translate(-13.81 -13.1)"/><path d="M167.32,134.59l-4.17.27a2.63,2.63,0,0,0-2,1.17,13.84,13.84,0,0,0-1.7-.92,14.11,14.11,0,0,0-6.61-1.09,17.42,17.42,0,0,0-9.77,3.77,21.45,21.45,0,0,0-6.54,8.74A25.06,25.06,0,0,0,134.67,158c.29,4.67,1.78,8.3,4.43,10.82a13.2,13.2,0,0,0,9.44,3.46c.42,0,.85,0,1.28,0a14.73,14.73,0,0,0,7.11-2.29,18.12,18.12,0,0,0,2.61-2c.11.12.21.24.33.36l0,0a8.54,8.54,0,0,0,6.86,2.21,3.57,3.57,0,0,0,1.58-.53,2.24,2.24,0,0,0,1.46-2.06c0-.65,0-1.3,0-1.95s0-1.55,0-2.31a2.23,2.23,0,0,0-.73-1.71,2.27,2.27,0,0,0-1.72-.57v0a6.57,6.57,0,0,1,.05-1.25v0l2.86-22v0a2.76,2.76,0,0,0-.72-2.33A2.72,2.72,0,0,0,167.32,134.59Zm-17.44,27.89a4.58,4.58,0,0,1-3.73-1.16,6.9,6.9,0,0,1-1.64-4.57,16.3,16.3,0,0,1,.59-5.65,12.54,12.54,0,0,1,2.11-4.27,11.17,11.17,0,0,1,3.07-2.7,7.41,7.41,0,0,1,3.34-1,3.93,3.93,0,0,1,.48,0,4.13,4.13,0,0,1,3.14,1.19,6.66,6.66,0,0,1,1.63,4.42,16.29,16.29,0,0,1-.92,6.4,13.21,13.21,0,0,1-3.39,5.27A7.31,7.31,0,0,1,149.88,162.48Z" transform="translate(-13.81 -13.1)"/><path d="M153.88,135a12.69,12.69,0,0,1,5.16,1,10.49,10.49,0,0,1,1.55.84l.81.53.56-.8a1.63,1.63,0,0,1,1.25-.75l4.17-.26h.1a2.1,2.1,0,0,1,1.84,2.32l-2.87,22a7.1,7.1,0,0,0-.06,1.45v.07l.08,1,1-.1h.12a1.29,1.29,0,0,1,.84.32,1.25,1.25,0,0,1,.4,1c0,.77,0,1.56,0,2.32s0,1.29,0,1.94A1.23,1.23,0,0,1,168,169l-.09,0-.08.05a2.68,2.68,0,0,1-1.13.39l-.79,0a7.27,7.27,0,0,1-5.33-1.95l-.27-.31-.67-.8-.78.71a17.38,17.38,0,0,1-2.47,1.9,13.7,13.7,0,0,1-6.63,2.14c-.41,0-.82,0-1.22,0a12.22,12.22,0,0,1-8.75-3.19c-2.46-2.33-3.84-5.75-4.12-10.15a24.18,24.18,0,0,1,1.77-11,20.32,20.32,0,0,1,6.24-8.34,16.28,16.28,0,0,1,9.21-3.56q.5,0,1,0h0m-4.51,28.51.57,0a8.33,8.33,0,0,0,5.31-2.41,14.28,14.28,0,0,0,3.64-5.66,17.23,17.23,0,0,0,1-6.81,7.68,7.68,0,0,0-1.92-5.06,5.13,5.13,0,0,0-3.85-1.48l-.55,0a8.4,8.4,0,0,0-3.77,1.19,12.25,12.25,0,0,0-3.36,2.94,13.66,13.66,0,0,0-2.28,4.6,17.16,17.16,0,0,0-.62,6,7.81,7.81,0,0,0,1.92,5.2,5.32,5.32,0,0,0,3.93,1.48M153.88,134q-.52,0-1,0a17.42,17.42,0,0,0-9.77,3.77,21.45,21.45,0,0,0-6.54,8.74A25.06,25.06,0,0,0,134.67,158c.29,4.67,1.78,8.3,4.43,10.82a13.2,13.2,0,0,0,9.44,3.46h0c.42,0,.85,0,1.28,0a14.73,14.73,0,0,0,7.11-2.29,18.12,18.12,0,0,0,2.61-2c.11.12.21.24.33.36l0,0a8.18,8.18,0,0,0,6,2.23l.85,0a3.57,3.57,0,0,0,1.58-.53,2.24,2.24,0,0,0,1.46-2.06c0-.65,0-1.3,0-1.95s0-1.55,0-2.31a2.23,2.23,0,0,0-.73-1.71,2.28,2.28,0,0,0-1.51-.58h-.21v0a6.57,6.57,0,0,1,.05-1.25v0l2.86-22v0a3.11,3.11,0,0,0-2.83-3.42h-.16l-4.17.27a2.63,2.63,0,0,0-2,1.17,13.84,13.84,0,0,0-1.7-.92,13.61,13.61,0,0,0-5.56-1.12Zm-4.51,28.51a4.31,4.31,0,0,1-3.22-1.18,6.9,6.9,0,0,1-1.64-4.57,16.3,16.3,0,0,1,.59-5.65,12.54,12.54,0,0,1,2.11-4.27,11.17,11.17,0,0,1,3.07-2.7,7.41,7.41,0,0,1,3.34-1,3.93,3.93,0,0,1,.48,0,4.13,4.13,0,0,1,3.14,1.19,6.66,6.66,0,0,1,1.63,4.42,16.29,16.29,0,0,1-.92,6.4,13.21,13.21,0,0,1-3.39,5.27,7.31,7.31,0,0,1-4.68,2.14l-.51,0Z" transform="translate(-13.81 -13.1)"/><path d="M234,135.67a2.75,2.75,0,0,0-2.28-1.08l-4.17.27a2.63,2.63,0,0,0-2,1.17,13.14,13.14,0,0,0-1.7-.92,14.09,14.09,0,0,0-6.61-1.09,17.42,17.42,0,0,0-9.77,3.77,21.45,21.45,0,0,0-6.54,8.74A25.2,25.2,0,0,0,199.07,158c.3,4.67,1.79,8.3,4.43,10.82a13.22,13.22,0,0,0,9.44,3.46c.42,0,.85,0,1.29,0a14.73,14.73,0,0,0,7.1-2.29,18.79,18.79,0,0,0,2.62-2l.32.36,0,0a8.55,8.55,0,0,0,6.87,2.21,3.57,3.57,0,0,0,1.58-.53,2.25,2.25,0,0,0,1.46-2.06c0-.65,0-1.3,0-1.95s0-1.55,0-2.31a2.25,2.25,0,0,0-2.46-2.28v0a5.84,5.84,0,0,1,0-1.25v0l2.86-22v0A2.83,2.83,0,0,0,234,135.67Zm-19.72,26.81a4.59,4.59,0,0,1-3.73-1.16,7,7,0,0,1-1.63-4.57,16.3,16.3,0,0,1,.58-5.65,12.54,12.54,0,0,1,2.11-4.27,11.2,11.2,0,0,1,3.08-2.7,7.37,7.37,0,0,1,3.33-1,4.1,4.1,0,0,1,.49,0,4.15,4.15,0,0,1,3.14,1.19,6.66,6.66,0,0,1,1.62,4.42,15.93,15.93,0,0,1-.92,6.4,13.21,13.21,0,0,1-3.39,5.27A7.29,7.29,0,0,1,214.28,162.48Z" transform="translate(-13.81 -13.1)"/><path d="M218.28,135a12.69,12.69,0,0,1,5.16,1,10,10,0,0,1,1.55.84l.82.53.55-.8a1.65,1.65,0,0,1,1.25-.75l4.17-.26h.1a1.86,1.86,0,0,1,1.39.77,1.83,1.83,0,0,1,.45,1.55l-2.86,22a7.1,7.1,0,0,0-.06,1.45v.07l.08,1,1-.1H232a1.24,1.24,0,0,1,1.24,1.27c0,.77,0,1.56,0,2.32s0,1.29,0,1.94a1.26,1.26,0,0,1-.81,1.14l-.09,0-.08.05a2.68,2.68,0,0,1-1.13.39l-.79,0a7.25,7.25,0,0,1-5.32-1.95c-.1-.1-.19-.21-.28-.31l-.67-.8-.77.71a17.48,17.48,0,0,1-2.48,1.9,13.7,13.7,0,0,1-6.63,2.14c-.41,0-.82,0-1.22,0a12.24,12.24,0,0,1-8.75-3.19c-2.45-2.33-3.84-5.75-4.12-10.15a24.18,24.18,0,0,1,1.77-11,20.49,20.49,0,0,1,6.24-8.34,16.34,16.34,0,0,1,9.21-3.56l1,0h0m-4.51,28.51.58,0a8.31,8.31,0,0,0,5.3-2.41,14.28,14.28,0,0,0,3.64-5.66,17.05,17.05,0,0,0,1-6.81,7.63,7.63,0,0,0-1.92-5.06,5.12,5.12,0,0,0-3.84-1.48l-.55,0a8.4,8.4,0,0,0-3.78,1.19,12.07,12.07,0,0,0-3.35,2.94,13.48,13.48,0,0,0-2.29,4.6,17.16,17.16,0,0,0-.62,6,7.86,7.86,0,0,0,1.92,5.2,5.33,5.33,0,0,0,3.93,1.48M218.28,134q-.53,0-1.05,0a17.42,17.42,0,0,0-9.77,3.77,21.45,21.45,0,0,0-6.54,8.74A25.2,25.2,0,0,0,199.07,158c.3,4.67,1.79,8.3,4.43,10.82a13.22,13.22,0,0,0,9.44,3.46h0c.42,0,.85,0,1.29,0a14.73,14.73,0,0,0,7.1-2.29,18.79,18.79,0,0,0,2.62-2l.32.36,0,0a8.18,8.18,0,0,0,6,2.23l.86,0a3.57,3.57,0,0,0,1.58-.53,2.25,2.25,0,0,0,1.46-2.06c0-.65,0-1.3,0-1.95s0-1.55,0-2.31a2.25,2.25,0,0,0-2.24-2.29h-.22v0a5.84,5.84,0,0,1,0-1.25v0l2.86-22v0a2.83,2.83,0,0,0-.72-2.33,2.8,2.8,0,0,0-2.12-1.09h-.16l-4.17.27a2.63,2.63,0,0,0-2,1.17,13.14,13.14,0,0,0-1.7-.92,13.57,13.57,0,0,0-5.56-1.12Zm-4.51,28.51a4.33,4.33,0,0,1-3.22-1.18,7,7,0,0,1-1.63-4.57,16.3,16.3,0,0,1,.58-5.65,12.54,12.54,0,0,1,2.11-4.27,11.2,11.2,0,0,1,3.08-2.7,7.37,7.37,0,0,1,3.33-1,4.1,4.1,0,0,1,.49,0,4.15,4.15,0,0,1,3.14,1.19,6.66,6.66,0,0,1,1.62,4.42,15.93,15.93,0,0,1-.92,6.4,13.21,13.21,0,0,1-3.39,5.27,7.29,7.29,0,0,1-4.68,2.14l-.51,0Z" transform="translate(-13.81 -13.1)"/></g><path class="cls-6" d="M132.86,101.75a1.57,1.57,0,0,0-1.57-1.55h-.08a1.56,1.56,0,0,0-1.57,1.55v18.33h0v.42a1.47,1.47,0,0,1-2.94,0V101.4a1.58,1.58,0,0,0-1.53-1.2h-.08a1.56,1.56,0,0,0-1.57,1.55v18.33h0v.47A1.41,1.41,0,0,1,122,122h0a1.41,1.41,0,0,1-1.42-1.4v-.47h0V101.75A1.56,1.56,0,0,0,119,100.2h-.08a1.56,1.56,0,0,0-1.57,1.55v18.33h0v.42a1.47,1.47,0,0,1-2.94,0V101.69a1.57,1.57,0,0,0-1.57-1.49h-.08a1.56,1.56,0,0,0-1.57,1.55v21.5a.61.61,0,0,0,0,.14h0a13.11,13.11,0,0,0,5.76,9.91,1.75,1.75,0,0,1,.73,1.64l-.12,1.13H89.89l-.19-2.36c3.91-2.56,6.94-8.17,6.94-15.42,0-10.05-5.81-17-11.73-17s-11.72,6.9-11.72,17c0,7.33,3.1,13,7.07,15.5L78,160.27c-.2,5.32,3,9.78,6.92,9.78s7.11-4.46,6.92-9.78l-1.35-16.69a8.63,8.63,0,0,0,5.22,1.91c3.23,0,3.92-1.15,4.59-2.26s1.2-2,4.51-2a18.7,18.7,0,0,1,4,.39l4.78,1.71h0a7.23,7.23,0,0,0,2.95.83h.24l-1.63,16.43c-.2,5.26,3,9.66,6.92,9.66s7.11-4.4,6.91-9.66l-2.4-25.72a1.77,1.77,0,0,1,.73-1.67,11.41,11.41,0,0,0,2.48-2.19,14,14,0,0,0,3.12-7.62h0s0-.09,0-.14Z" transform="translate(-13.81 -13.1)"/><path class="cls-7" d="M206.38,119.24a7.67,7.67,0,0,0,.86-3.38c0-3-2.45-6.25-6-6.25a5.69,5.69,0,0,0-5,3l0,0-.06.11-10.76,18.7-10.7-18.68a5.76,5.76,0,0,0-5-3.18c-3.6,0-6,3.3-6,6.38a6.89,6.89,0,0,0,.94,3.39L179.59,145v19a5.84,5.84,0,0,0,5.92,6.31c2.82,0,5.86-2,5.86-6.31V145l14.95-25.69Z" transform="translate(-13.81 -13.1)"/><path class="cls-8" d="M165.66,132.93l-4.17.27a2.63,2.63,0,0,0-2,1.17,12,12,0,0,0-1.7-.91,14,14,0,0,0-6.61-1.1,17.42,17.42,0,0,0-9.77,3.77,21.45,21.45,0,0,0-6.54,8.74A25.06,25.06,0,0,0,133,156.29c.29,4.67,1.79,8.3,4.43,10.82a13.16,13.16,0,0,0,9.44,3.46c.42,0,.85,0,1.28,0a14.73,14.73,0,0,0,7.11-2.29,18.12,18.12,0,0,0,2.61-2c.11.13.21.24.33.36l0,0a8.57,8.57,0,0,0,6.86,2.2,3.57,3.57,0,0,0,1.58-.53,2.25,2.25,0,0,0,1.47-2.06c0-.65,0-1.3,0-1.95s0-1.55,0-2.31a2.23,2.23,0,0,0-.73-1.71,2.26,2.26,0,0,0-1.72-.57v-.05a6.57,6.57,0,0,1,.05-1.25v0l2.86-22v0a2.79,2.79,0,0,0-.71-2.33A2.75,2.75,0,0,0,165.66,132.93Zm-17.44,27.89a4.55,4.55,0,0,1-3.73-1.16,7,7,0,0,1-1.64-4.56,16.33,16.33,0,0,1,.59-5.66,12.54,12.54,0,0,1,2.11-4.27,11.17,11.17,0,0,1,3.07-2.7,7.54,7.54,0,0,1,3.34-1.05l.48,0a4.13,4.13,0,0,1,3.14,1.19,6.66,6.66,0,0,1,1.63,4.42,16.29,16.29,0,0,1-.92,6.4,13.21,13.21,0,0,1-3.39,5.27A7.31,7.31,0,0,1,148.22,160.82Z" transform="translate(-13.81 -13.1)"/><path class="cls-9" d="M232.34,134a2.75,2.75,0,0,0-2.28-1.08l-4.17.27a2.63,2.63,0,0,0-2,1.17,12,12,0,0,0-1.7-.91,14,14,0,0,0-6.61-1.1,17.42,17.42,0,0,0-9.77,3.77,21.45,21.45,0,0,0-6.54,8.74,25.2,25.2,0,0,0-1.85,11.42c.3,4.67,1.79,8.3,4.43,10.82a13.18,13.18,0,0,0,9.45,3.46c.41,0,.84,0,1.28,0a14.66,14.66,0,0,0,7.1-2.29,18.79,18.79,0,0,0,2.62-2c.1.13.21.24.32.36l0,0a8.58,8.58,0,0,0,6.87,2.2,3.57,3.57,0,0,0,1.58-.53,2.25,2.25,0,0,0,1.46-2.06c0-.65,0-1.3,0-1.95s0-1.55,0-2.31a2.25,2.25,0,0,0-2.46-2.28v-.05a5.84,5.84,0,0,1,.05-1.25v0l2.86-22v0A2.83,2.83,0,0,0,232.34,134Zm-19.72,26.81a4.56,4.56,0,0,1-3.73-1.16,7,7,0,0,1-1.63-4.56,16.33,16.33,0,0,1,.58-5.66,12.54,12.54,0,0,1,2.11-4.27,11.2,11.2,0,0,1,3.08-2.7,7.54,7.54,0,0,1,3.33-1.05l.49,0a4.15,4.15,0,0,1,3.14,1.19,6.66,6.66,0,0,1,1.62,4.42,15.93,15.93,0,0,1-.92,6.4,13.21,13.21,0,0,1-3.39,5.27A7.26,7.26,0,0,1,212.62,160.82Z" transform="translate(-13.81 -13.1)"/><path class="cls-10" d="M132.86,101.75a1.57,1.57,0,0,0-1.57-1.55h-.08a1.56,1.56,0,0,0-1.57,1.55v18.33h0v.42a1.47,1.47,0,0,1-2.94,0V101.4a1.58,1.58,0,0,0-1.53-1.2h-.08a1.56,1.56,0,0,0-1.57,1.55v18.33h0v.47A1.41,1.41,0,0,1,122,122h0a1.41,1.41,0,0,1-1.42-1.4v-.47h0V101.75A1.56,1.56,0,0,0,119,100.2h-.08a1.56,1.56,0,0,0-1.57,1.55v18.33h0v.42a1.47,1.47,0,0,1-2.94,0V101.69a1.57,1.57,0,0,0-1.57-1.49h-.08a1.56,1.56,0,0,0-1.57,1.55v21.5a.61.61,0,0,0,0,.14h0a13.11,13.11,0,0,0,5.76,9.91,1.75,1.75,0,0,1,.73,1.64l-.12,1.13H89.89l-.19-2.36c3.91-2.56,6.94-8.17,6.94-15.42,0-10.05-5.81-17-11.73-17s-11.72,6.9-11.72,17c0,7.33,3.1,13,7.07,15.5L78,160.27c-.2,5.32,3,9.78,6.92,9.78s7.11-4.46,6.92-9.78l-1.35-16.69a8.63,8.63,0,0,0,5.22,1.91c3.23,0,3.92-1.15,4.59-2.26s1.2-2,4.51-2a18.7,18.7,0,0,1,4,.39l4.78,1.71h0a7.23,7.23,0,0,0,2.95.83h.24l-1.63,16.43c-.2,5.26,3,9.66,6.92,9.66s7.11-4.4,6.91-9.66l-2.4-25.72a1.77,1.77,0,0,1,.73-1.67,11.41,11.41,0,0,0,2.48-2.19,14,14,0,0,0,3.12-7.62h0s0-.09,0-.14Z" transform="translate(-13.81 -13.1)"/><path class="cls-10" d="M131.29,101.2a.57.57,0,0,1,.57.55V123.3l0,.32a13,13,0,0,1-2.86,6.74,10.33,10.33,0,0,1-2.25,2,2.78,2.78,0,0,0-1.19,2.6l2.41,25.7a9.69,9.69,0,0,1-2.38,7,4.65,4.65,0,0,1-7.09,0,9.69,9.69,0,0,1-2.38-7l1.63-16.4.12-1.17-1.17.07h-.18a6.59,6.59,0,0,1-2.55-.74l0,0h0l-4.77-1.71-.07,0H109a19.7,19.7,0,0,0-4.16-.41c-3.58,0-4.55,1.12-5.36,2.47-.6,1-1.08,1.78-3.74,1.78a7.59,7.59,0,0,1-4.6-1.7l-1.8-1.39.19,2.26,1.34,16.65a9.89,9.89,0,0,1-2.41,7.11,4.59,4.59,0,0,1-7,0A9.81,9.81,0,0,1,79,160.35l2.27-26.47,0-.61L80.8,133c-4.08-2.58-6.61-8.2-6.61-14.66,0-9.85,5.56-16,10.72-16s10.73,6.1,10.73,16c0,6.37-2.49,12-6.49,14.58l-.5.33,0,.59.19,2.36.07.92h29.48l.09-.9.11-1.13a2.69,2.69,0,0,0-1.19-2.58,12.07,12.07,0,0,1-5.25-8.76l0-.4V101.75a.57.57,0,0,1,.57-.55h.08a.56.56,0,0,1,.57.49V120.5a2.46,2.46,0,0,0,2.47,2.45,2.49,2.49,0,0,0,2.4-1.87h.07V101.75a.57.57,0,0,1,.57-.55H119a.57.57,0,0,1,.57.55v18.33l0,1h.06a2.45,2.45,0,0,0,4.76,0h.09V101.75a.56.56,0,0,1,.57-.55h.08a.58.58,0,0,1,.53.35v19a2.47,2.47,0,0,0,4.87.58h.11V101.75a.56.56,0,0,1,.57-.55h.08m0-1h-.08a1.56,1.56,0,0,0-1.57,1.55v18.33h0v.42a1.47,1.47,0,0,1-2.94,0V101.4a1.58,1.58,0,0,0-1.53-1.2h-.08a1.56,1.56,0,0,0-1.57,1.55v18.33h0v.47A1.41,1.41,0,0,1,122,122h0a1.41,1.41,0,0,1-1.42-1.4v-.47h0V101.75A1.56,1.56,0,0,0,119,100.2h-.08a1.56,1.56,0,0,0-1.57,1.55v18.33h0v.42a1.47,1.47,0,0,1-2.94,0V101.69a1.57,1.57,0,0,0-1.57-1.49h-.08a1.56,1.56,0,0,0-1.57,1.55v21.5a.61.61,0,0,0,0,.14h0a13.11,13.11,0,0,0,5.76,9.91,1.75,1.75,0,0,1,.73,1.64l-.12,1.13H89.89l-.19-2.36c3.91-2.56,6.94-8.17,6.94-15.42,0-10.05-5.81-17-11.73-17s-11.72,6.9-11.72,17c0,7.33,3.1,13,7.07,15.5L78,160.27c-.2,5.32,3,9.78,6.92,9.78s7.11-4.46,6.92-9.78l-1.35-16.69a8.63,8.63,0,0,0,5.22,1.91c3.23,0,3.92-1.15,4.59-2.26s1.2-2,4.51-2a18.7,18.7,0,0,1,4,.39l4.78,1.71h0a7.23,7.23,0,0,0,2.95.83h.24l-1.63,16.43c-.2,5.26,3,9.66,6.92,9.66s7.11-4.4,6.91-9.66l-2.4-25.72a1.77,1.77,0,0,1,.73-1.67,11.41,11.41,0,0,0,2.48-2.19,14,14,0,0,0,3.12-7.62h0s0-.09,0-.14v-21.5a1.57,1.57,0,0,0-1.57-1.55Z" transform="translate(-13.81 -13.1)"/><path class="cls-10" d="M206.38,119.24a7.67,7.67,0,0,0,.86-3.38c0-3-2.45-6.25-6-6.25a5.69,5.69,0,0,0-5,3l0,0-.06.11-10.76,18.7-10.7-18.68a5.76,5.76,0,0,0-5-3.18c-3.6,0-6,3.3-6,6.38a6.89,6.89,0,0,0,.94,3.39L179.59,145v19a5.84,5.84,0,0,0,5.92,6.31c2.82,0,5.86-2,5.86-6.31V145l14.95-25.69Z" transform="translate(-13.81 -13.1)"/><path class="cls-10" d="M201.27,110.61a5.26,5.26,0,0,1,5,5.25,6.68,6.68,0,0,1-.75,2.91l0,.07-15,25.7-.14.23V164c0,3.67-2.44,5.31-4.86,5.31a5,5,0,0,1-2.9-.89,5.13,5.13,0,0,1-2-4.42V144.77l-.13-.23-14.94-25.68a5.82,5.82,0,0,1-.8-2.87c0-2.6,2-5.38,5-5.38a4.79,4.79,0,0,1,4.15,2.68L184.59,132l.87,1.52.87-1.51,10.75-18.7,0-.08,0,0a4.69,4.69,0,0,1,4.11-2.53m0-1a5.69,5.69,0,0,0-5,3l0,0-.06.11-10.76,18.7-10.7-18.68a5.76,5.76,0,0,0-5-3.18c-3.6,0-6,3.3-6,6.38a6.89,6.89,0,0,0,.94,3.39L179.59,145v19a5.84,5.84,0,0,0,5.92,6.31c2.82,0,5.86-2,5.86-6.31V145l14.95-25.69.06-.11a7.67,7.67,0,0,0,.86-3.38c0-3-2.45-6.25-6-6.25Z" transform="translate(-13.81 -13.1)"/><path class="cls-10" d="M165.66,132.93l-4.17.27a2.63,2.63,0,0,0-2,1.17,12,12,0,0,0-1.7-.91,14,14,0,0,0-6.61-1.1,17.42,17.42,0,0,0-9.77,3.77,21.45,21.45,0,0,0-6.54,8.74A25.06,25.06,0,0,0,133,156.29c.29,4.67,1.79,8.3,4.43,10.82a13.16,13.16,0,0,0,9.44,3.46c.42,0,.85,0,1.28,0a14.73,14.73,0,0,0,7.11-2.29,18.12,18.12,0,0,0,2.61-2c.11.13.21.24.33.36l0,0a8.57,8.57,0,0,0,6.86,2.2,3.57,3.57,0,0,0,1.58-.53,2.25,2.25,0,0,0,1.47-2.06c0-.65,0-1.3,0-1.95s0-1.55,0-2.31a2.23,2.23,0,0,0-.73-1.71,2.26,2.26,0,0,0-1.72-.57v-.05a6.57,6.57,0,0,1,.05-1.25v0l2.86-22v0a2.79,2.79,0,0,0-.71-2.33A2.75,2.75,0,0,0,165.66,132.93Zm-17.44,27.89a4.55,4.55,0,0,1-3.73-1.16,7,7,0,0,1-1.64-4.56,16.33,16.33,0,0,1,.59-5.66,12.54,12.54,0,0,1,2.11-4.27,11.17,11.17,0,0,1,3.07-2.7,7.54,7.54,0,0,1,3.34-1.05l.48,0a4.13,4.13,0,0,1,3.14,1.19,6.66,6.66,0,0,1,1.63,4.42,16.29,16.29,0,0,1-.92,6.4,13.21,13.21,0,0,1-3.39,5.27A7.31,7.31,0,0,1,148.22,160.82Z" transform="translate(-13.81 -13.1)"/><path class="cls-10" d="M152.22,133.33a12.69,12.69,0,0,1,5.16,1,11.51,11.51,0,0,1,1.55.84l.82.53.55-.8a1.68,1.68,0,0,1,1.25-.75l4.17-.26h.1a2.08,2.08,0,0,1,1.84,2.31l-2.87,22a7.1,7.1,0,0,0-.06,1.45v.07l.08,1,1-.1H166a1.29,1.29,0,0,1,.84.32,1.25,1.25,0,0,1,.4.95c0,.77,0,1.56,0,2.32s0,1.29,0,1.94a1.26,1.26,0,0,1-.81,1.14l-.09,0-.08.05a2.68,2.68,0,0,1-1.13.39c-.27,0-.53,0-.79,0a7.25,7.25,0,0,1-5.32-2,4.12,4.12,0,0,1-.28-.31l-.67-.8-.77.71a19,19,0,0,1-2.48,1.91,13.91,13.91,0,0,1-6.63,2.14l-1.22,0a12.22,12.22,0,0,1-8.75-3.19c-2.46-2.33-3.84-5.75-4.12-10.15a24.18,24.18,0,0,1,1.77-11,20.47,20.47,0,0,1,6.24-8.34,16.34,16.34,0,0,1,9.21-3.56q.5,0,1,0h0m-4.51,28.51.57,0a8.33,8.33,0,0,0,5.31-2.41,14.28,14.28,0,0,0,3.64-5.66,17.21,17.21,0,0,0,1-6.81,7.63,7.63,0,0,0-1.92-5.06,5.13,5.13,0,0,0-3.85-1.48l-.55,0a8.4,8.4,0,0,0-3.77,1.19,12.07,12.07,0,0,0-3.35,2.94,13.48,13.48,0,0,0-2.29,4.6,17.16,17.16,0,0,0-.62,6,7.81,7.81,0,0,0,1.92,5.2,5.32,5.32,0,0,0,3.93,1.48m4.51-29.51q-.53,0-1.05,0a17.42,17.42,0,0,0-9.77,3.77,21.45,21.45,0,0,0-6.54,8.74A25.06,25.06,0,0,0,133,156.29c.29,4.67,1.79,8.3,4.43,10.82a13.2,13.2,0,0,0,9.44,3.46h0c.42,0,.85,0,1.28,0a14.73,14.73,0,0,0,7.11-2.29,18.12,18.12,0,0,0,2.61-2c.11.13.21.24.33.36l0,0a8.18,8.18,0,0,0,6,2.22l.85,0a3.57,3.57,0,0,0,1.58-.53,2.25,2.25,0,0,0,1.47-2.06c0-.65,0-1.3,0-1.95s0-1.55,0-2.31a2.23,2.23,0,0,0-.73-1.71,2.28,2.28,0,0,0-1.51-.58h-.21v-.05a6.57,6.57,0,0,1,.05-1.25v0l2.86-22v0a3.08,3.08,0,0,0-2.83-3.41h-.16l-4.17.27a2.63,2.63,0,0,0-2,1.17,12,12,0,0,0-1.7-.91,13.61,13.61,0,0,0-5.56-1.13Zm-4.51,28.51a4.33,4.33,0,0,1-3.22-1.18,7,7,0,0,1-1.64-4.56,16.33,16.33,0,0,1,.59-5.66,12.54,12.54,0,0,1,2.11-4.27,11.17,11.17,0,0,1,3.07-2.7,7.54,7.54,0,0,1,3.34-1.05l.48,0a4.13,4.13,0,0,1,3.14,1.19,6.66,6.66,0,0,1,1.63,4.42,16.29,16.29,0,0,1-.92,6.4,13.21,13.21,0,0,1-3.39,5.27,7.31,7.31,0,0,1-4.68,2.14l-.51,0Z" transform="translate(-13.81 -13.1)"/><path class="cls-10" d="M232.34,134a2.75,2.75,0,0,0-2.28-1.08l-4.17.27a2.63,2.63,0,0,0-2,1.17,12,12,0,0,0-1.7-.91,14,14,0,0,0-6.61-1.1,17.42,17.42,0,0,0-9.77,3.77,21.45,21.45,0,0,0-6.54,8.74,25.2,25.2,0,0,0-1.85,11.42c.3,4.67,1.79,8.3,4.43,10.82a13.18,13.18,0,0,0,9.45,3.46c.41,0,.84,0,1.28,0a14.66,14.66,0,0,0,7.1-2.29,18.79,18.79,0,0,0,2.62-2c.1.13.21.24.32.36l0,0a8.58,8.58,0,0,0,6.87,2.2,3.57,3.57,0,0,0,1.58-.53,2.25,2.25,0,0,0,1.46-2.06c0-.65,0-1.3,0-1.95s0-1.55,0-2.31a2.25,2.25,0,0,0-2.46-2.28v-.05a5.84,5.84,0,0,1,.05-1.25v0l2.86-22v0A2.83,2.83,0,0,0,232.34,134Zm-19.72,26.81a4.56,4.56,0,0,1-3.73-1.16,7,7,0,0,1-1.63-4.56,16.33,16.33,0,0,1,.58-5.66,12.54,12.54,0,0,1,2.11-4.27,11.2,11.2,0,0,1,3.08-2.7,7.54,7.54,0,0,1,3.33-1.05l.49,0a4.15,4.15,0,0,1,3.14,1.19,6.66,6.66,0,0,1,1.62,4.42,15.93,15.93,0,0,1-.92,6.4,13.21,13.21,0,0,1-3.39,5.27A7.26,7.26,0,0,1,212.62,160.82Z" transform="translate(-13.81 -13.1)"/><path class="cls-10" d="M216.62,133.33a12.69,12.69,0,0,1,5.16,1,11.63,11.63,0,0,1,1.56.84l.81.53.55-.8a1.68,1.68,0,0,1,1.25-.75l4.18-.26h.09a2.08,2.08,0,0,1,1.84,2.31l-2.86,22a7.1,7.1,0,0,0-.06,1.45v.07l.08,1,1-.1h.12A1.24,1.24,0,0,1,231.6,162c0,.77,0,1.56,0,2.32s0,1.29,0,1.94a1.24,1.24,0,0,1-.81,1.14l-.09,0-.08.05a2.68,2.68,0,0,1-1.13.39c-.27,0-.53,0-.79,0a7.25,7.25,0,0,1-5.32-2,4.12,4.12,0,0,1-.28-.31l-.67-.8-.77.71a18.31,18.31,0,0,1-2.48,1.91,13.91,13.91,0,0,1-6.63,2.14l-1.22,0a12.24,12.24,0,0,1-8.75-3.19c-2.45-2.33-3.84-5.75-4.12-10.15a24.18,24.18,0,0,1,1.77-11,20.56,20.56,0,0,1,6.24-8.34,16.34,16.34,0,0,1,9.22-3.56l1,0h0m-4.51,28.51.58,0a8.31,8.31,0,0,0,5.3-2.41,14.28,14.28,0,0,0,3.64-5.66,17,17,0,0,0,1-6.81,7.67,7.67,0,0,0-1.91-5.06,5.16,5.16,0,0,0-3.85-1.48l-.55,0a8.4,8.4,0,0,0-3.78,1.19,12.07,12.07,0,0,0-3.35,2.94,13.48,13.48,0,0,0-2.29,4.6,17.16,17.16,0,0,0-.62,6,7.86,7.86,0,0,0,1.92,5.2,5.33,5.33,0,0,0,3.93,1.48m4.51-29.51-1.05,0a17.42,17.42,0,0,0-9.77,3.77,21.45,21.45,0,0,0-6.54,8.74,25.2,25.2,0,0,0-1.85,11.42c.3,4.67,1.79,8.3,4.43,10.82a13.22,13.22,0,0,0,9.44,3.46h0c.41,0,.84,0,1.28,0a14.66,14.66,0,0,0,7.1-2.29,18.79,18.79,0,0,0,2.62-2c.1.13.21.24.32.36l0,0a8.18,8.18,0,0,0,6,2.22l.86,0a3.57,3.57,0,0,0,1.58-.53,2.25,2.25,0,0,0,1.46-2.06c0-.65,0-1.3,0-1.95s0-1.55,0-2.31a2.25,2.25,0,0,0-2.24-2.29h-.22v-.05a5.84,5.84,0,0,1,.05-1.25v0l2.86-22v0a2.83,2.83,0,0,0-.72-2.33,2.78,2.78,0,0,0-2.12-1.08h-.16l-4.17.27a2.63,2.63,0,0,0-2,1.17,12,12,0,0,0-1.7-.91,13.58,13.58,0,0,0-5.56-1.13Zm-4.51,28.51a4.33,4.33,0,0,1-3.22-1.18,7,7,0,0,1-1.63-4.56,16.33,16.33,0,0,1,.58-5.66,12.54,12.54,0,0,1,2.11-4.27,11.2,11.2,0,0,1,3.08-2.7,7.54,7.54,0,0,1,3.33-1.05l.49,0a4.15,4.15,0,0,1,3.14,1.19,6.66,6.66,0,0,1,1.62,4.42,15.93,15.93,0,0,1-.92,6.4,13.21,13.21,0,0,1-3.39,5.27,7.26,7.26,0,0,1-4.68,2.14l-.51,0Z" transform="translate(-13.81 -13.1)"/><path class="cls-3" d="M132.86,101.75a1.57,1.57,0,0,0-1.57-1.55h-.08a1.56,1.56,0,0,0-1.57,1.55v18.33h0v.42a1.47,1.47,0,0,1-2.94,0V101.4a1.58,1.58,0,0,0-1.53-1.2h-.08a1.56,1.56,0,0,0-1.57,1.55v18.33h0v.47A1.41,1.41,0,0,1,122,122h0a1.41,1.41,0,0,1-1.42-1.4v-.47h0V101.75A1.56,1.56,0,0,0,119,100.2h-.08a1.56,1.56,0,0,0-1.57,1.55v18.33h0v.42a1.47,1.47,0,0,1-2.94,0V101.69a1.57,1.57,0,0,0-1.57-1.49h-.08a1.56,1.56,0,0,0-1.57,1.55v21.5a.61.61,0,0,0,0,.14h0a13.11,13.11,0,0,0,5.76,9.91,1.75,1.75,0,0,1,.73,1.64l-.12,1.13H89.89l-.19-2.36c3.91-2.56,6.94-8.17,6.94-15.42,0-10.05-5.81-17-11.73-17s-11.72,6.9-11.72,17c0,7.33,3.1,13,7.07,15.5L78,160.27c-.2,5.32,3,9.78,6.92,9.78s7.11-4.46,6.92-9.78l-1.35-16.69a8.63,8.63,0,0,0,5.22,1.91c3.23,0,3.92-1.15,4.59-2.26s1.2-2,4.51-2a18.7,18.7,0,0,1,4,.39l4.78,1.71h0a7.23,7.23,0,0,0,2.95.83h.24l-1.63,16.43c-.2,5.26,3,9.66,6.92,9.66s7.11-4.4,6.91-9.66l-2.4-25.72a1.77,1.77,0,0,1,.73-1.67,11.41,11.41,0,0,0,2.48-2.19,14,14,0,0,0,3.12-7.62h0s0-.09,0-.14Z" transform="translate(-13.81 -13.1)"/><path class="cls-3" d="M131.29,101.2a.57.57,0,0,1,.57.55V123.3l0,.32a13,13,0,0,1-2.86,6.74,10.33,10.33,0,0,1-2.25,2,2.78,2.78,0,0,0-1.19,2.6l2.41,25.7a9.69,9.69,0,0,1-2.38,7,4.65,4.65,0,0,1-7.09,0,9.69,9.69,0,0,1-2.38-7l1.63-16.4.12-1.17-1.17.07h-.18a6.59,6.59,0,0,1-2.55-.74l0,0h0l-4.77-1.71-.07,0H109a19.7,19.7,0,0,0-4.16-.41c-3.58,0-4.55,1.12-5.36,2.47-.6,1-1.08,1.78-3.74,1.78a7.59,7.59,0,0,1-4.6-1.7l-1.8-1.39.19,2.26,1.34,16.65a9.89,9.89,0,0,1-2.41,7.11,4.59,4.59,0,0,1-7,0A9.81,9.81,0,0,1,79,160.35l2.27-26.47,0-.61L80.8,133c-4.08-2.58-6.61-8.2-6.61-14.66,0-9.85,5.56-16,10.72-16s10.73,6.1,10.73,16c0,6.37-2.49,12-6.49,14.58l-.5.33,0,.59.19,2.36.07.92h29.48l.09-.9.11-1.13a2.69,2.69,0,0,0-1.19-2.58,12.07,12.07,0,0,1-5.25-8.76l0-.4V101.75a.57.57,0,0,1,.57-.55h.08a.56.56,0,0,1,.57.49V120.5a2.46,2.46,0,0,0,2.47,2.45,2.49,2.49,0,0,0,2.4-1.87h.07V101.75a.57.57,0,0,1,.57-.55H119a.57.57,0,0,1,.57.55v18.33l0,1h.06a2.45,2.45,0,0,0,4.76,0h.09V101.75a.56.56,0,0,1,.57-.55h.08a.58.58,0,0,1,.53.35v19a2.47,2.47,0,0,0,4.87.58h.11V101.75a.56.56,0,0,1,.57-.55h.08m0-1h-.08a1.56,1.56,0,0,0-1.57,1.55v18.33h0v.42a1.47,1.47,0,0,1-2.94,0V101.4a1.58,1.58,0,0,0-1.53-1.2h-.08a1.56,1.56,0,0,0-1.57,1.55v18.33h0v.47A1.41,1.41,0,0,1,122,122h0a1.41,1.41,0,0,1-1.42-1.4v-.47h0V101.75A1.56,1.56,0,0,0,119,100.2h-.08a1.56,1.56,0,0,0-1.57,1.55v18.33h0v.42a1.47,1.47,0,0,1-2.94,0V101.69a1.57,1.57,0,0,0-1.57-1.49h-.08a1.56,1.56,0,0,0-1.57,1.55v21.5a.61.61,0,0,0,0,.14h0a13.11,13.11,0,0,0,5.76,9.91,1.75,1.75,0,0,1,.73,1.64l-.12,1.13H89.89l-.19-2.36c3.91-2.56,6.94-8.17,6.94-15.42,0-10.05-5.81-17-11.73-17s-11.72,6.9-11.72,17c0,7.33,3.1,13,7.07,15.5L78,160.27c-.2,5.32,3,9.78,6.92,9.78s7.11-4.46,6.92-9.78l-1.35-16.69a8.63,8.63,0,0,0,5.22,1.91c3.23,0,3.92-1.15,4.59-2.26s1.2-2,4.51-2a18.7,18.7,0,0,1,4,.39l4.78,1.71h0a7.23,7.23,0,0,0,2.95.83h.24l-1.63,16.43c-.2,5.26,3,9.66,6.92,9.66s7.11-4.4,6.91-9.66l-2.4-25.72a1.77,1.77,0,0,1,.73-1.67,11.41,11.41,0,0,0,2.48-2.19,14,14,0,0,0,3.12-7.62h0s0-.09,0-.14v-21.5a1.57,1.57,0,0,0-1.57-1.55Z" transform="translate(-13.81 -13.1)"/><path class="cls-3" d="M206.38,119.24a7.67,7.67,0,0,0,.86-3.38c0-3-2.45-6.25-6-6.25a5.69,5.69,0,0,0-5,3l0,0-.06.11-10.76,18.7-10.7-18.68a5.76,5.76,0,0,0-5-3.18c-3.6,0-6,3.3-6,6.38a6.89,6.89,0,0,0,.94,3.39L179.59,145v19a5.84,5.84,0,0,0,5.92,6.31c2.82,0,5.86-2,5.86-6.31V145l14.95-25.69Z" transform="translate(-13.81 -13.1)"/><path class="cls-3" d="M201.27,110.61a5.26,5.26,0,0,1,5,5.25,6.68,6.68,0,0,1-.75,2.91l0,.07-15,25.7-.14.23V164c0,3.67-2.44,5.31-4.86,5.31a5,5,0,0,1-2.9-.89,5.13,5.13,0,0,1-2-4.42V144.77l-.13-.23-14.94-25.68a5.82,5.82,0,0,1-.8-2.87c0-2.6,2-5.38,5-5.38a4.79,4.79,0,0,1,4.15,2.68L184.59,132l.87,1.52.87-1.51,10.75-18.7,0-.08,0,0a4.69,4.69,0,0,1,4.11-2.53m0-1a5.69,5.69,0,0,0-5,3l0,0-.06.11-10.76,18.7-10.7-18.68a5.76,5.76,0,0,0-5-3.18c-3.6,0-6,3.3-6,6.38a6.89,6.89,0,0,0,.94,3.39L179.59,145v19a5.84,5.84,0,0,0,5.92,6.31c2.82,0,5.86-2,5.86-6.31V145l14.95-25.69.06-.11a7.67,7.67,0,0,0,.86-3.38c0-3-2.45-6.25-6-6.25Z" transform="translate(-13.81 -13.1)"/><path class="cls-3" d="M165.66,132.93l-4.17.27a2.63,2.63,0,0,0-2,1.17,12,12,0,0,0-1.7-.91,14,14,0,0,0-6.61-1.1,17.42,17.42,0,0,0-9.77,3.77,21.45,21.45,0,0,0-6.54,8.74A25.06,25.06,0,0,0,133,156.29c.29,4.67,1.79,8.3,4.43,10.82a13.16,13.16,0,0,0,9.44,3.46c.42,0,.85,0,1.28,0a14.73,14.73,0,0,0,7.11-2.29,18.12,18.12,0,0,0,2.61-2c.11.13.21.24.33.36l0,0a8.57,8.57,0,0,0,6.86,2.2,3.57,3.57,0,0,0,1.58-.53,2.25,2.25,0,0,0,1.47-2.06c0-.65,0-1.3,0-1.95s0-1.55,0-2.31a2.23,2.23,0,0,0-.73-1.71,2.26,2.26,0,0,0-1.72-.57v-.05a6.57,6.57,0,0,1,.05-1.25v0l2.86-22v0a2.79,2.79,0,0,0-.71-2.33A2.75,2.75,0,0,0,165.66,132.93Zm-17.44,27.89a4.55,4.55,0,0,1-3.73-1.16,7,7,0,0,1-1.64-4.56,16.33,16.33,0,0,1,.59-5.66,12.54,12.54,0,0,1,2.11-4.27,11.17,11.17,0,0,1,3.07-2.7,7.54,7.54,0,0,1,3.34-1.05l.48,0a4.13,4.13,0,0,1,3.14,1.19,6.66,6.66,0,0,1,1.63,4.42,16.29,16.29,0,0,1-.92,6.4,13.21,13.21,0,0,1-3.39,5.27A7.31,7.31,0,0,1,148.22,160.82Z" transform="translate(-13.81 -13.1)"/><path class="cls-3" d="M152.22,133.33a12.69,12.69,0,0,1,5.16,1,11.51,11.51,0,0,1,1.55.84l.82.53.55-.8a1.68,1.68,0,0,1,1.25-.75l4.17-.26h.1a2.08,2.08,0,0,1,1.84,2.31l-2.87,22a7.1,7.1,0,0,0-.06,1.45v.07l.08,1,1-.1H166a1.29,1.29,0,0,1,.84.32,1.25,1.25,0,0,1,.4.95c0,.77,0,1.56,0,2.32s0,1.29,0,1.94a1.26,1.26,0,0,1-.81,1.14l-.09,0-.08.05a2.68,2.68,0,0,1-1.13.39c-.27,0-.53,0-.79,0a7.25,7.25,0,0,1-5.32-2,4.12,4.12,0,0,1-.28-.31l-.67-.8-.77.71a19,19,0,0,1-2.48,1.91,13.91,13.91,0,0,1-6.63,2.14l-1.22,0a12.22,12.22,0,0,1-8.75-3.19c-2.46-2.33-3.84-5.75-4.12-10.15a24.18,24.18,0,0,1,1.77-11,20.47,20.47,0,0,1,6.24-8.34,16.34,16.34,0,0,1,9.21-3.56q.5,0,1,0h0m-4.51,28.51.57,0a8.33,8.33,0,0,0,5.31-2.41,14.28,14.28,0,0,0,3.64-5.66,17.21,17.21,0,0,0,1-6.81,7.63,7.63,0,0,0-1.92-5.06,5.13,5.13,0,0,0-3.85-1.48l-.55,0a8.4,8.4,0,0,0-3.77,1.19,12.07,12.07,0,0,0-3.35,2.94,13.48,13.48,0,0,0-2.29,4.6,17.16,17.16,0,0,0-.62,6,7.81,7.81,0,0,0,1.92,5.2,5.32,5.32,0,0,0,3.93,1.48m4.51-29.51q-.53,0-1.05,0a17.42,17.42,0,0,0-9.77,3.77,21.45,21.45,0,0,0-6.54,8.74A25.06,25.06,0,0,0,133,156.29c.29,4.67,1.79,8.3,4.43,10.82a13.2,13.2,0,0,0,9.44,3.46h0c.42,0,.85,0,1.28,0a14.73,14.73,0,0,0,7.11-2.29,18.12,18.12,0,0,0,2.61-2c.11.13.21.24.33.36l0,0a8.18,8.18,0,0,0,6,2.22l.85,0a3.57,3.57,0,0,0,1.58-.53,2.25,2.25,0,0,0,1.47-2.06c0-.65,0-1.3,0-1.95s0-1.55,0-2.31a2.23,2.23,0,0,0-.73-1.71,2.28,2.28,0,0,0-1.51-.58h-.21v-.05a6.57,6.57,0,0,1,.05-1.25v0l2.86-22v0a3.08,3.08,0,0,0-2.83-3.41h-.16l-4.17.27a2.63,2.63,0,0,0-2,1.17,12,12,0,0,0-1.7-.91,13.61,13.61,0,0,0-5.56-1.13Zm-4.51,28.51a4.33,4.33,0,0,1-3.22-1.18,7,7,0,0,1-1.64-4.56,16.33,16.33,0,0,1,.59-5.66,12.54,12.54,0,0,1,2.11-4.27,11.17,11.17,0,0,1,3.07-2.7,7.54,7.54,0,0,1,3.34-1.05l.48,0a4.13,4.13,0,0,1,3.14,1.19,6.66,6.66,0,0,1,1.63,4.42,16.29,16.29,0,0,1-.92,6.4,13.21,13.21,0,0,1-3.39,5.27,7.31,7.31,0,0,1-4.68,2.14l-.51,0Z" transform="translate(-13.81 -13.1)"/><path class="cls-3" d="M232.34,134a2.75,2.75,0,0,0-2.28-1.08l-4.17.27a2.63,2.63,0,0,0-2,1.17,12,12,0,0,0-1.7-.91,14,14,0,0,0-6.61-1.1,17.42,17.42,0,0,0-9.77,3.77,21.45,21.45,0,0,0-6.54,8.74,25.2,25.2,0,0,0-1.85,11.42c.3,4.67,1.79,8.3,4.43,10.82a13.18,13.18,0,0,0,9.45,3.46c.41,0,.84,0,1.28,0a14.66,14.66,0,0,0,7.1-2.29,18.79,18.79,0,0,0,2.62-2c.1.13.21.24.32.36l0,0a8.58,8.58,0,0,0,6.87,2.2,3.57,3.57,0,0,0,1.58-.53,2.25,2.25,0,0,0,1.46-2.06c0-.65,0-1.3,0-1.95s0-1.55,0-2.31a2.25,2.25,0,0,0-2.46-2.28v-.05a5.84,5.84,0,0,1,.05-1.25v0l2.86-22v0A2.83,2.83,0,0,0,232.34,134Zm-19.72,26.81a4.56,4.56,0,0,1-3.73-1.16,7,7,0,0,1-1.63-4.56,16.33,16.33,0,0,1,.58-5.66,12.54,12.54,0,0,1,2.11-4.27,11.2,11.2,0,0,1,3.08-2.7,7.54,7.54,0,0,1,3.33-1.05l.49,0a4.15,4.15,0,0,1,3.14,1.19,6.66,6.66,0,0,1,1.62,4.42,15.93,15.93,0,0,1-.92,6.4,13.21,13.21,0,0,1-3.39,5.27A7.26,7.26,0,0,1,212.62,160.82Z" transform="translate(-13.81 -13.1)"/><path class="cls-3" d="M216.62,133.33a12.69,12.69,0,0,1,5.16,1,11.63,11.63,0,0,1,1.56.84l.81.53.55-.8a1.68,1.68,0,0,1,1.25-.75l4.18-.26h.09a2.08,2.08,0,0,1,1.84,2.31l-2.86,22a7.1,7.1,0,0,0-.06,1.45v.07l.08,1,1-.1h.12A1.24,1.24,0,0,1,231.6,162c0,.77,0,1.56,0,2.32s0,1.29,0,1.94a1.24,1.24,0,0,1-.81,1.14l-.09,0-.08.05a2.68,2.68,0,0,1-1.13.39c-.27,0-.53,0-.79,0a7.25,7.25,0,0,1-5.32-2,4.12,4.12,0,0,1-.28-.31l-.67-.8-.77.71a18.31,18.31,0,0,1-2.48,1.91,13.91,13.91,0,0,1-6.63,2.14l-1.22,0a12.24,12.24,0,0,1-8.75-3.19c-2.45-2.33-3.84-5.75-4.12-10.15a24.18,24.18,0,0,1,1.77-11,20.56,20.56,0,0,1,6.24-8.34,16.34,16.34,0,0,1,9.22-3.56l1,0h0m-4.51,28.51.58,0a8.31,8.31,0,0,0,5.3-2.41,14.28,14.28,0,0,0,3.64-5.66,17,17,0,0,0,1-6.81,7.67,7.67,0,0,0-1.91-5.06,5.16,5.16,0,0,0-3.85-1.48l-.55,0a8.4,8.4,0,0,0-3.78,1.19,12.07,12.07,0,0,0-3.35,2.94,13.48,13.48,0,0,0-2.29,4.6,17.16,17.16,0,0,0-.62,6,7.86,7.86,0,0,0,1.92,5.2,5.33,5.33,0,0,0,3.93,1.48m4.51-29.51-1.05,0a17.42,17.42,0,0,0-9.77,3.77,21.45,21.45,0,0,0-6.54,8.74,25.2,25.2,0,0,0-1.85,11.42c.3,4.67,1.79,8.3,4.43,10.82a13.22,13.22,0,0,0,9.44,3.46h0c.41,0,.84,0,1.28,0a14.66,14.66,0,0,0,7.1-2.29,18.79,18.79,0,0,0,2.62-2c.1.13.21.24.32.36l0,0a8.18,8.18,0,0,0,6,2.22l.86,0a3.57,3.57,0,0,0,1.58-.53,2.25,2.25,0,0,0,1.46-2.06c0-.65,0-1.3,0-1.95s0-1.55,0-2.31a2.25,2.25,0,0,0-2.24-2.29h-.22v-.05a5.84,5.84,0,0,1,.05-1.25v0l2.86-22v0a2.83,2.83,0,0,0-.72-2.33,2.78,2.78,0,0,0-2.12-1.08h-.16l-4.17.27a2.63,2.63,0,0,0-2,1.17,12,12,0,0,0-1.7-.91,13.58,13.58,0,0,0-5.56-1.13Zm-4.51,28.51a4.33,4.33,0,0,1-3.22-1.18,7,7,0,0,1-1.63-4.56,16.33,16.33,0,0,1,.58-5.66,12.54,12.54,0,0,1,2.11-4.27,11.2,11.2,0,0,1,3.08-2.7,7.54,7.54,0,0,1,3.33-1.05l.49,0a4.15,4.15,0,0,1,3.14,1.19,6.66,6.66,0,0,1,1.62,4.42,15.93,15.93,0,0,1-.92,6.4,13.21,13.21,0,0,1-3.39,5.27,7.26,7.26,0,0,1-4.68,2.14l-.51,0Z" transform="translate(-13.81 -13.1)"/></g></g></svg>